<svg id="Layer_1" data-name="Layer 1" xmlns="http://www.w3.org/2000/svg" viewBox="0 0 155.76 63.69"><defs><style>.cls-1,.cls-2{fill:#672f25;}.cls-1{fill-rule:evenodd;}</style></defs><path class="cls-1" d="M278.8,651c.38,0,.81.2.57.7s-.44.9-.65,1.27c-1.68,3-6.4,11.62-7.12,13.5-.45,1.17-.39,1.63-.26,1.82s.17.19.46.24,1.22-.07,4-1.94a.74.74,0,0,1,1,.06c.07.11.39.5-.29,1.12a14.84,14.84,0,0,1-9.69,4,2.47,2.47,0,0,1-2.3-1.07,3.59,3.59,0,0,1,.09-3.38c.24-.67,1.29-2.77,2.56-5.32,2.54-4.82,4.49-9.07,5.12-10.17a1.49,1.49,0,0,1,1.32-.73c2.53-.09,5-.11,5.16-.11" transform="translate(-219.76 -622.22)"/><path class="cls-1" d="M308.84,651c.37,0,.81.2.57.7s-7.05,12.89-7.77,14.77c-.45,1.17-.39,1.63-.26,1.82s.17.19.46.24c.45,0,1.22-.07,4-1.94a.74.74,0,0,1,1,.06c.07.11.39.5-.29,1.12a14.84,14.84,0,0,1-9.69,4,2.47,2.47,0,0,1-2.3-1.07,3.59,3.59,0,0,1,.09-3.38c.24-.67,1.29-2.77,2.56-5.32,2.54-4.82,4.49-9.07,5.12-10.17a1.49,1.49,0,0,1,1.32-.73c2.53-.09,5-.11,5.16-.11" transform="translate(-219.76 -622.22)"/><path class="cls-1" d="M296,645.52l-5.1.1a1.54,1.54,0,0,0-1.5.73s-1.37,2.6-1.76,3.39c-.51,1-.79,1.22-1.26,1.28h-3.43a1,1,0,0,0-1,.86c-.31.84.11,1.24.55,1.24h2.65c.1,0,.41,0,.44.17s0,.31-.09.54c-.45.9-.91,1.76-1.36,2.66-2,3.86-4.81,9.48-5.43,11.16a3.68,3.68,0,0,0,.09,3.21,2.62,2.62,0,0,0,2.34,1c5.66,0,10.56-4,10.61-4,.45-.4.56-.74.37-1.15a2.37,2.37,0,0,1-.34-.29.93.93,0,0,0-.64.08l-.3.18a13.39,13.39,0,0,1-2,1c-1.17.47-1.92.53-2.26.2s-.32-1.07,0-2.2c.62-1.85,5.58-11.25,5.58-11.25a2.27,2.27,0,0,1,1.87-1.31c.73-.12,3.81-.06,3.81-.06a1.24,1.24,0,0,0,1.3-1.06c.19-.59.37-1-.73-1h-4c-.3,0-.37-.16-.21-.43,0,0,2.45-4.3,2.45-4.3.43-.73-.49-.78-.62-.78" transform="translate(-219.76 -622.22)"/><path class="cls-1" d="M353.24,652.2a1,1,0,0,1,.81.39,1.77,1.77,0,0,1,.08,1.23,7,7,0,0,1-1.72,3.35,4,4,0,0,1-2.05,1.06c-1.22.29-3.21.49-3.46.22a9.45,9.45,0,0,1,2-3.37c.91-1.17,2.63-3,4.37-2.88m.09-1.62c-9,.3-12.81,6.73-14.12,8.94-.67,1.1-3.75,6.57-2.4,9.82.65,1.37,2,2,4.12,2.11a21.26,21.26,0,0,0,13.35-4.73.76.76,0,0,0,.28-1c-.08-.14-.35-.39-.85,0h0c-1.06.74-4.83,3-7.49,2.87a2.77,2.77,0,0,1-2.55-1.41c-.69-1.72.68-4.38,1.33-5.51a1.81,1.81,0,0,1,1.4-1l.19,0c.28-.08,2.46-.49,4.23-.8.83-.17,1.63-.3,2.45-.47a.8.8,0,0,0,.26-.05c2.39-.45,4.41-.86,5.41-4.11a3.84,3.84,0,0,0-.17-3.12c-.95-1.34-3.09-1.52-5.42-1.46" transform="translate(-219.76 -622.22)"/><path class="cls-1" d="M256,651H251a1.24,1.24,0,0,0-1.36,1.09c-.25,1.16,1,1.07,1,1.07h4.21l-.1.16a93,93,0,0,1-5.54,8c-5.71,7.41-12.12,11.07-18.41,11-2.73-.07-5.46-1.14-5.81-3.1a3.24,3.24,0,0,1,.78-2.13,5.2,5.2,0,0,0,1.19-3.05,4,4,0,0,0-.68-2.74,3.06,3.06,0,0,0-2.48-1.3,3.5,3.5,0,0,0-3,1.75,6.72,6.72,0,0,0-.91,4.31c.65,5.13,4.48,8.06,11.39,8.3,9.53.13,19.13-5.49,29.53-18.09,1-1.22,1.29-1.71,2.07-2.72l.31-.44h4a1.93,1.93,0,0,0,2-1.16c.48-1.21-1.16-1-1.16-1H264.7c.26-.35.36-.52.43-.61,1.06-1.51,2.07-3,3.17-4.46,1.56-2.22,3.14-4.38,5.16-7a65.21,65.21,0,0,1,9-9.19,87.71,87.71,0,0,0,12.76.67c4.27-.13,6.86-1.54,7.09-3.73a2.32,2.32,0,0,0-.74-2c-1.2-1.18-3.69-1.8-7.06-1.72a31.84,31.84,0,0,0-12.65,3.39l-6.92-1.47c-1.43-.32-2.78-.59-4.18-.87-7.68-1.55-13.74-2-17.71-1.69-12.35,1.18-20.74,7-23,15.94-1.39,6.48,1,11.89,6.54,14.11a2.41,2.41,0,0,0,2,.18l0,0a1,1,0,0,0,.4-.48.92.92,0,0,0,0-.57,0,0,0,0,0,0,0,.87.87,0,0,0-.68-.44c-.26-.11-.56-.2-.82-.28-7.06-3.45-5.64-9.82-5.12-11.76,2.33-7.26,8.78-11.53,19.55-12.53a.12.12,0,0,0,.1,0c6.4-.5,15.67.87,17.54,1.16,1.59.28,3.12.53,4.74.83,1.22.21,2.39.4,3.61.64a78.82,78.82,0,0,0-15.72,14.35c-2.27,2.81-4.06,5-5.69,7.36a.69.69,0,0,1-.51.2m38.39-26h.11c2.55,0,4.46.33,5.23,1a.66.66,0,0,1,.26.58c-.07,1-1.83,1.73-4.38,1.81a54.41,54.41,0,0,1-9.68-1.1,19.92,19.92,0,0,1,8.46-2.3" transform="translate(-219.76 -622.22)"/><path class="cls-1" d="M317,668.82a1.23,1.23,0,0,1-1.16-.6c-.43-.86-.35-2.89,2.77-8.39,4.49-7.9,7.48-8.4,9-8.11a1.66,1.66,0,0,1,1.35.86c.48,1.18-.19,3.64-2.59,7.87-4.48,8-8.28,8.4-9.39,8.37m24.14-28.38-8.51.43c-1,0-1.38.16-1.54,1a.8.8,0,0,0,.11.54,1.3,1.3,0,0,0,.91.46l.17,0a2.17,2.17,0,0,1,1.49.68,1.71,1.71,0,0,1,0,1.43c-.58,1.5-2.14,4.71-2.35,5.08a.76.76,0,0,1-1,.43c-.11,0-11.11-3.86-19.45,9.64-4,6.89-2.71,9.51-1.54,10.62,2.44,2.13,7.71,1.14,12.7-2.4.29-.19.45-.21.5-.18a.72.72,0,0,1,0,.34A2.94,2.94,0,0,0,323,671c.63.65,1.72.85,3.31.57,4.5-.81,8.4-3.44,9.34-4.68a.69.69,0,0,0,.11-.87c-.17-.18-.43-.41-1.17.15-1.11.89-3.42,2.35-4.34,1.9-.41-.24-.14-1.41.57-3,1.21-2.3,2.33-4.52,3.43-6.81,4.43-9,7.55-16.48,7.67-16.76a.85.85,0,0,0,0-.86.82.82,0,0,0-.74-.25" transform="translate(-219.76 -622.22)"/><path class="cls-1" d="M311.55,644.61a1.68,1.68,0,0,1,.36,1.87,3.81,3.81,0,0,1-1.72,1.89,5.4,5.4,0,0,1-2.79.78,3,3,0,0,1-2.25-.78,1.71,1.71,0,0,1-.37-1.89,3.71,3.71,0,0,1,1.73-1.87,5.47,5.47,0,0,1,2.81-.78,3,3,0,0,1,2.23.78" transform="translate(-219.76 -622.22)"/><path class="cls-1" d="M362.35,671h0c7.17-.64,10-5.57,10.62-8.21a4.05,4.05,0,0,0-.11-2.84c-.47-1-1.44-1.65-3.42-2.24-1.76-.53-2.92-1-3.25-1.59a1.71,1.71,0,0,1-.07-1.07,3.18,3.18,0,0,1,3.09-2.63,1.67,1.67,0,0,1,1.65.53,2.38,2.38,0,0,1,.26,1.76,2.29,2.29,0,0,0,.13,1.71c.25.38.73.52,1.43.49a2.77,2.77,0,0,0,2.78-2.76,2.25,2.25,0,0,0-.4-1.86c-.81-1.08-2.43-1.6-5.28-1.54-7.71.32-9.38,5.44-9.63,6.53-.56,2.72.27,4.16,3.1,5.3l.93.28c1,.29,2.33.66,2.75,1.54a2.86,2.86,0,0,1,0,1.83,4.72,4.72,0,0,1-4.73,3,5.57,5.57,0,0,1-2.75-.92c-1-.65-1.87-.45-2.09.15-.81,2.19,3.47,2.69,5,2.58" transform="translate(-219.76 -622.22)"/><path class="cls-1" d="M281.51,644.61a1.68,1.68,0,0,1,.36,1.87,3.81,3.81,0,0,1-1.72,1.89,5.41,5.41,0,0,1-2.8.78,3,3,0,0,1-2.24-.78,1.71,1.71,0,0,1-.37-1.89,3.71,3.71,0,0,1,1.73-1.87,5.44,5.44,0,0,1,2.81-.78,3,3,0,0,1,2.23.78" transform="translate(-219.76 -622.22)"/><path class="cls-2" d="M254.92,685.21a3,3,0,0,1-.78.09,2.31,2.31,0,0,1-1.07-.21,1.49,1.49,0,0,1-.6-.62,2.92,2.92,0,0,1-.28-1,12.74,12.74,0,0,1,0-2.47,2.92,2.92,0,0,1,.28-1,1.52,1.52,0,0,1,.6-.63,2.18,2.18,0,0,1,1.07-.23,2.14,2.14,0,0,1,1.06.23,1.48,1.48,0,0,1,.61.63,2.7,2.7,0,0,1,.27,1,11.78,11.78,0,0,1,.06,1.23,9.63,9.63,0,0,1-.08,1.37,2.34,2.34,0,0,1-.37,1l.64.62-.71.63Zm-1.57-1.94a2.69,2.69,0,0,0,.12.68.72.72,0,0,0,.24.38.71.71,0,0,0,.43.12.68.68,0,0,0,.42-.12.73.73,0,0,0,.25-.38,2.69,2.69,0,0,0,.12-.68c0-.27,0-.61,0-1s0-.73,0-1a2.78,2.78,0,0,0-.12-.68.73.73,0,0,0-.25-.38.68.68,0,0,0-.42-.12.71.71,0,0,0-.43.12.72.72,0,0,0-.24.38,2.78,2.78,0,0,0-.12.68c0,.27,0,.61,0,1S253.33,683,253.35,683.27Z" transform="translate(-219.76 -622.22)"/><path class="cls-2" d="M259.32,683.43a2.63,2.63,0,0,0,0,.41.81.81,0,0,0,.11.32.53.53,0,0,0,.21.21.68.68,0,0,0,.34.08.7.7,0,0,0,.35-.08.53.53,0,0,0,.21-.21,1,1,0,0,0,.11-.32,2.63,2.63,0,0,0,0-.41v-4.11h1.18v4.11a2.52,2.52,0,0,1-.15.93,1.7,1.7,0,0,1-.42.58,1.5,1.5,0,0,1-.61.29,3.2,3.2,0,0,1-.7.07,4,4,0,0,1-.7-.06,1.56,1.56,0,0,1-.6-.27,1.34,1.34,0,0,1-.42-.58,2.37,2.37,0,0,1-.16-1v-4.11h1.19Z" transform="translate(-219.76 -622.22)"/><path class="cls-2" d="M266.58,679.32l1.56,5.89H266.9l-.27-1.25h-1.57l-.27,1.25h-1.24l1.56-5.89Zm-.16,3.67-.57-2.65h0l-.57,2.65Z" transform="translate(-219.76 -622.22)"/><path class="cls-2" d="M270,679.32h1.19v4.92h2.1v1H270Z" transform="translate(-219.76 -622.22)"/><path class="cls-2" d="M275.22,679.32h1.19v5.89h-1.19Z" transform="translate(-219.76 -622.22)"/><path class="cls-2" d="M282.1,680.29h-1.29v4.92h-1.19v-4.92h-1.29v-1h3.77Z" transform="translate(-219.76 -622.22)"/><path class="cls-2" d="M285.92,681.6h0l.83-2.28H288l-1.52,3.57v2.32h-1.19v-2.32l-1.53-3.57h1.34Z" transform="translate(-219.76 -622.22)"/><path class="cls-2" d="M295.18,679.32a1.76,1.76,0,0,1,.77.15,1.53,1.53,0,0,1,.5.4,1.77,1.77,0,0,1,.27.57,2.74,2.74,0,0,1,.08.64,2.17,2.17,0,0,1-.13.8,1.59,1.59,0,0,1-.38.55,1.68,1.68,0,0,1-.59.32,2.7,2.7,0,0,1-.77.11h-.64v2.35H293.1v-5.89Zm-.36,2.66a.77.77,0,0,0,.57-.21.89.89,0,0,0,.22-.67,1,1,0,0,0-.19-.68.78.78,0,0,0-.63-.23h-.5V682Z" transform="translate(-219.76 -622.22)"/><path class="cls-2" d="M298.77,679.32H300v5.89h-1.19Z" transform="translate(-219.76 -622.22)"/><path class="cls-2" d="M305.65,680.29h-1.29v4.92h-1.19v-4.92h-1.29v-1h3.77Z" transform="translate(-219.76 -622.22)"/><path class="cls-2" d="M311.15,680.29h-1.28v4.92h-1.19v-4.92h-1.29v-1h3.76Z" transform="translate(-219.76 -622.22)"/><path class="cls-2" d="M315.25,679.32l1.56,5.89h-1.24L315.3,684h-1.57l-.27,1.25h-1.24l1.56-5.89ZM315.1,683l-.57-2.65h0l-.57,2.65Z" transform="translate(-219.76 -622.22)"/><path class="cls-2" d="M323.84,679.32a2.87,2.87,0,0,1,.67.07,1.37,1.37,0,0,1,.53.25,1.09,1.09,0,0,1,.35.46,1.85,1.85,0,0,1,.12.71,1.46,1.46,0,0,1-.22.82,1.11,1.11,0,0,1-.67.47v0a1.12,1.12,0,0,1,.78.42,1.4,1.4,0,0,1,.29,1,2.39,2.39,0,0,1-.09.66,1.27,1.27,0,0,1-.31.54,1.39,1.39,0,0,1-.57.38,2.4,2.4,0,0,1-.87.14h-2v-5.89Zm-.47,2.42a1.21,1.21,0,0,0,.73-.18.72.72,0,0,0,.22-.6.75.75,0,0,0-.2-.59,1,1,0,0,0-.66-.18H323v1.55Zm.13,2.6a1.22,1.22,0,0,0,.69-.19.81.81,0,0,0,.27-.71,1,1,0,0,0-.08-.42.75.75,0,0,0-.18-.27.73.73,0,0,0-.29-.15,1.37,1.37,0,0,0-.36,0H323v1.78Z" transform="translate(-219.76 -622.22)"/><path class="cls-2" d="M329.91,679.32a1.64,1.64,0,0,1,1.15.37,1.46,1.46,0,0,1,.42,1.15,1.79,1.79,0,0,1-.24,1,1.11,1.11,0,0,1-.75.48h0a1.13,1.13,0,0,1,.65.29,1.2,1.2,0,0,1,.26.72q0,.16,0,.36c0,.13,0,.27,0,.43,0,.32,0,.56.05.72a.45.45,0,0,0,.22.34v.05h-1.29a.7.7,0,0,1-.12-.28l0-.34,0-1.13a.87.87,0,0,0-.18-.54.6.6,0,0,0-.52-.2h-.64v2.49h-1.19v-5.89Zm-.51,2.57a1,1,0,0,0,.66-.2.87.87,0,0,0,.23-.68.73.73,0,0,0-.83-.82h-.56v1.7Z" transform="translate(-219.76 -622.22)"/><path class="cls-2" d="M336.94,680.29h-2.1v1.39h2v1h-2v1.59H337v1h-3.37v-5.89h3.29Z" transform="translate(-219.76 -622.22)"/><path class="cls-2" d="M341.79,679.32l1.56,5.89h-1.24l-.27-1.25h-1.57l-.27,1.25h-1.24l1.56-5.89Zm-.16,3.67-.57-2.65h0l-.57,2.65Z" transform="translate(-219.76 -622.22)"/><path class="cls-2" d="M347.17,679.32a2,2,0,0,1,1,.2,1.38,1.38,0,0,1,.59.58,2.58,2.58,0,0,1,.29.9,8.51,8.51,0,0,1,.07,1.18,8.78,8.78,0,0,1-.09,1.35,2.86,2.86,0,0,1-.33,1,1.44,1.44,0,0,1-.62.55,2.32,2.32,0,0,1-1,.18h-1.87v-5.89Zm-.23,5a1.07,1.07,0,0,0,.51-.11.79.79,0,0,0,.3-.36,2.31,2.31,0,0,0,.15-.65c0-.27,0-.6,0-1s0-.63,0-.88a2.1,2.1,0,0,0-.14-.63.77.77,0,0,0-.3-.38,1,1,0,0,0-.54-.13h-.51v4.15Z" transform="translate(-219.76 -622.22)"/></svg>